PathFileType	4	(X/Y/Z)	/tmp/tmpiz60ez2f/Subject7/MarkerData/Take_2_segment_4.trc
DataRate	CameraRate	NumFrames	NumMarkers	Units	OrigDataRate	OrigDataStartFrame	OrigNumFrames
50.003	50.003	11	39	m	50.003	1000	2000
Frame#	Time	C7			CLAV			LANK			LASI			LBHD			LELB			LFHD			LFIN			LFRM			LHEE			LKNE			LPSI			LSHO			LTHI			LTIB			LTOE			LUPA			LWRA			LWRB			RANK			RASI			RBAK			RBHD			RELB			RFHD			RFIN			RFRM			RHEE			RKNE			RPSI			RSHO			RTHI			RTIB			RTOE			RUPA			RWRA			RWRB			STRN			T10		
		X1	Y1	Z1	X2	Y2	Z2	X3	Y3	Z3	X4	Y4	Z4	X5	Y5	Z5	X6	Y6	Z6	X7	Y7	Z7	X8	Y8	Z8	X9	Y9	Z9	X10	Y10	Z10	X11	Y11	Z11	X12	Y12	Z12	X13	Y13	Z13	X14	Y14	Z14	X15	Y15	Z15	X16	Y16	Z16	X17	Y17	Z17	X18	Y18	Z18	X19	Y19	Z19	X20	Y20	Z20	X21	Y21	Z21	X22	Y22	Z22	X23	Y23	Z23	X24	Y24	Z24	X25	Y25	Z25	X26	Y26	Z26	X27	Y27	Z27	X28	Y28	Z28	X29	Y29	Z29	X30	Y30	Z30	X31	Y31	Z31	X32	Y32	Z32	X33	Y33	Z33	X34	Y34	Z34	X35	Y35	Z35	X36	Y36	Z36	X37	Y37	Z37	X38	Y38	Z38	X39	Y39	Z39

1001	180.019	0.727404	1.35138	0.0072944	0.637279	1.26486	-0.08146	0.546353	0.118767	0.210195	0.51624	0.852574	0.0402354	0.674559	1.51077	0.0533338	0.394622	1.03397	0.123495	0.576573	1.53396	-0.10472	0.26542	0.757291	-0.0317921	0.329602	0.908321	0.0871542	0.651783	0.0823537	0.250842	0.411467	0.448465	0.0455315	0.61457	0.878625	0.15515	0.529818	1.30397	0.0873992	0.434777	0.622748	0.0505632	0.46455	0.288313	0.14647	0.460909	0.0314922	0.0705464	0.460335	1.15429	0.122317	0.345708	0.797715	-0.0226582	0.273529	0.800609	0.0302729	0.760632	0.0690807	-0.010554	0.726321	0.845712	-0.130229	0.835227	1.21317	0.00210069	0.758147	1.50742	-0.00850299	0.765592	1.23541	-0.414368	0.666971	1.53292	-0.15456	0.470379	1.39807	-0.428273	0.651008	1.28233	-0.472642	0.77391	0.0327252	0.0849482	0.660091	0.428773	-0.178982	0.824879	0.865816	0.0106076	0.780049	1.31944	-0.148892	0.710846	0.645717	-0.172579	0.721976	0.233586	-0.108096	0.592255	0.0289318	-0.110302	0.781917	1.2618	-0.309754	0.554963	1.36968	-0.386228	0.510536	1.34196	-0.454517	0.601938	1.10053	-0.111473	0.758389	1.014	0.0861753
1002	180.039	0.728028	1.35207	0.00671122	0.639275	1.26533	-0.0834536	0.545375	0.120548	0.209151	0.51708	0.853246	0.0382361	0.673688	1.51159	0.0517656	0.393487	1.03448	0.116667	0.578809	1.53415	-0.108143	0.26946	0.756428	-0.0416715	0.329894	0.9085	0.0787427	0.650988	0.0849474	0.250066	0.411073	0.449831	0.0435657	0.614665	0.879495	0.153716	0.529309	1.30461	0.0838937	0.434954	0.623995	0.0486703	0.464024	0.290024	0.144923	0.460877	0.0313855	0.0703563	0.45915	1.1549	0.117233	0.349012	0.798148	-0.0307372	0.275639	0.800473	0.0204576	0.760728	0.0690243	-0.0105814	0.728162	0.846036	-0.130859	0.83604	1.21386	0.00285708	0.758443	1.50836	-0.00835566	0.774353	1.23608	-0.414522	0.670548	1.53321	-0.155694	0.480877	1.40052	-0.435579	0.661653	1.28366	-0.475256	0.773933	0.0327881	0.0849085	0.661128	0.429136	-0.178868	0.825867	0.866356	0.0105183	0.782878	1.32012	-0.148783	0.71231	0.645975	-0.172705	0.722331	0.233617	-0.108197	0.592264	0.0289095	-0.110319	0.788307	1.26248	-0.309712	0.563552	1.37078	-0.390748	0.521335	1.3442	-0.46062	0.604092	1.1011	-0.113673	0.758585	1.01474	0.0858336
1003	180.059	0.728631	1.35273	0.0060728	0.641224	1.26582	-0.0854233	0.544334	0.122378	0.208044	0.51788	0.85392	0.0362544	0.672854	1.51237	0.050159	0.392511	1.03498	0.109844	0.581072	1.53433	-0.111567	0.273595	0.755589	-0.051365	0.330352	0.908678	0.0703897	0.650128	0.0876319	0.24924	0.410615	0.451224	0.0414897	0.614713	0.880398	0.152335	0.528845	1.30526	0.0803841	0.435097	0.625255	0.0467018	0.463423	0.291791	0.143285	0.460862	0.0312775	0.070167	0.458067	1.15549	0.112129	0.352349	0.798638	-0.0387518	0.277903	0.800349	0.0107493	0.760811	0.0689803	-0.0106114	0.729959	0.846339	-0.131443	0.836791	1.2145	0.00352287	0.758747	1.50927	-0.00825771	0.782921	1.23669	-0.414535	0.674036	1.5335	-0.156861	0.491488	1.40299	-0.4425	0.672176	1.285	-0.477645	0.773951	0.032864	0.0848685	0.662107	0.429504	-0.178741	0.826813	0.86689	0.0104781	0.785644	1.32075	-0.148702	0.713732	0.646224	-0.172797	0.72264	0.233651	-0.108303	0.592269	0.0288781	-0.110339	0.794573	1.26309	-0.309611	0.572046	1.37184	-0.395045	0.532122	1.34649	-0.46652	0.606202	1.10165	-0.115826	0.758735	1.01546	0.0855067
1004	180.079	0.729214	1.35337	0.00539493	0.64314	1.26633	-0.0873397	0.543218	0.124262	0.206856	0.518647	0.854611	0.0343109	0.672066	1.51312	0.0485057	0.391712	1.03547	0.103038	0.583357	1.53451	-0.11498	0.277815	0.754781	-0.0608611	0.330989	0.908848	0.0621201	0.649187	0.0904393	0.248353	0.410067	0.452662	0.0392849	0.614724	0.881353	0.151027	0.528432	1.30591	0.0768745	0.435195	0.626551	0.044654	0.462715	0.293639	0.141537	0.460845	0.0311705	0.0699891	0.457104	1.15607	0.107012	0.355721	0.799174	-0.0466902	0.280316	0.800235	0.00119048	0.760887	0.0689462	-0.0106389	0.731711	0.846637	-0.131972	0.83749	1.21509	0.00411569	0.75907	1.51016	-0.00822687	0.7913	1.23726	-0.414415	0.677401	1.53378	-0.158101	0.502179	1.40545	-0.449006	0.682566	1.28633	-0.479817	0.773966	0.0329494	0.084831	0.66305	0.429884	-0.178593	0.827723	0.867429	0.0104887	0.788354	1.32134	-0.148638	0.715126	0.646472	-0.172846	0.722925	0.233694	-0.108405	0.592271	0.0288391	-0.11036	0.80072	1.26365	-0.309441	0.580421	1.37285	-0.399118	0.542884	1.34882	-0.472216	0.60827	1.10217	-0.117942	0.758843	1.01617	0.0852009
1005	180.099	0.729787	1.35401	0.00470027	0.64504	1.26687	-0.0891857	0.542015	0.126212	0.205573	0.519396	0.855326	0.0324276	0.671326	1.51386	0.0467991	0.391092	1.03596	0.096268	0.585658	1.53468	-0.118372	0.282119	0.754015	-0.0701599	0.331803	0.90902	0.0539501	0.648154	0.0933975	0.247387	0.409411	0.454163	0.0369473	0.614714	0.882367	0.149811	0.528073	1.30658	0.0733725	0.435237	0.627902	0.0425394	0.461888	0.295591	0.139668	0.460816	0.0310658	0.0698277	0.456267	1.15665	0.101896	0.359145	0.79975	-0.054541	0.28287	0.800138	-0.00819678	0.760961	0.0689195	-0.0106591	0.733417	0.846944	-0.132443	0.83815	1.21567	0.00466729	0.759407	1.51101	-0.00828102	0.799496	1.23779	-0.414165	0.680637	1.53406	-0.159421	0.512888	1.40787	-0.455108	0.692806	1.28768	-0.481782	0.773977	0.0330393	0.0847991	0.663977	0.430279	-0.178414	0.828597	0.867983	0.0105481	0.791015	1.32189	-0.148571	0.716501	0.646732	-0.172848	0.723204	0.233752	-0.108492	0.592271	0.0287948	-0.110381	0.806747	1.26418	-0.309181	0.588657	1.37382	-0.40298	0.553597	1.35118	-0.477703	0.610294	1.10269	-0.120027	0.758918	1.01687	0.0849172
1006	180.119	0.730359	1.35467	0.0040124	0.646937	1.26742	-0.0909561	0.54072	0.128249	0.20418	0.520143	0.856067	0.0306216	0.670632	1.5146	0.0450375	0.390641	1.03647	0.0895531	0.58797	1.53486	-0.121736	0.286516	0.753316	-0.0792735	0.332786	0.909212	0.0458863	0.647027	0.0965251	0.246318	0.408645	0.455741	0.0344859	0.614699	0.883433	0.148702	0.527773	1.30726	0.0698906	0.43522	0.629323	0.0403763	0.460943	0.29766	0.137678	0.460769	0.0309624	0.0696809	0.455552	1.15723	0.0968036	0.362641	0.800369	-0.0622956	0.285561	0.800081	-0.0174123	0.761037	0.0688979	-0.0106691	0.735086	0.847272	-0.132856	0.838785	1.21625	0.00521563	0.759742	1.51185	-0.00843149	0.80751	1.23834	-0.413786	0.683759	1.53434	-0.160807	0.523545	1.41024	-0.460852	0.702877	1.28902	-0.483545	0.773987	0.0331267	0.084775	0.664895	0.430691	-0.178191	0.829435	0.868552	0.010654	0.793632	1.32243	-0.148477	0.717854	0.647012	-0.1728	0.723494	0.23383	-0.108557	0.592271	0.0287484	-0.1104	0.812647	1.2647	-0.308801	0.596734	1.37474	-0.406652	0.564231	1.35353	-0.482977	0.612277	1.10322	-0.122085	0.758966	1.01758	0.0846566
1007	180.139	0.730929	1.35535	0.00334906	0.648835	1.26798	-0.0926507	0.539337	0.130389	0.202672	0.5209	0.856831	0.0289013	0.669975	1.51536	0.0432251	0.390342	1.03702	0.0829128	0.590288	1.53503	-0.125066	0.291014	0.752714	-0.0882232	0.333923	0.90944	0.0379296	0.645812	0.0998303	0.24512	0.407779	0.457403	0.0319192	0.614691	0.884524	0.147697	0.52753	1.30797	0.0664453	0.435148	0.630823	0.0381802	0.4599	0.299846	0.135569	0.460708	0.0308562	0.0695405	0.454946	1.15785	0.0917625	0.366222	0.801039	-0.0699464	0.288383	0.800085	-0.0264705	0.761119	0.0688786	-0.0106685	0.736724	0.847633	-0.133216	0.839405	1.21685	0.00579534	0.760059	1.51268	-0.00867753	0.815341	1.2389	-0.413274	0.686791	1.53462	-0.162238	0.534084	1.41256	-0.46631	0.71276	1.29037	-0.485108	0.774	0.0332038	0.0847571	0.665811	0.431123	-0.177918	0.830238	0.869136	0.0108048	0.796205	1.32298	-0.148337	0.719181	0.647323	-0.172704	0.723809	0.233931	-0.108592	0.59227	0.028703	-0.110417	0.818408	1.26523	-0.308269	0.604637	1.37563	-0.41016	0.574752	1.35587	-0.488038	0.61422	1.10377	-0.124112	0.758995	1.0183	0.0844239
1008	180.159	0.73149	1.35605	0.00271913	0.650733	1.26855	-0.0942677	0.537881	0.132638	0.201047	0.521676	0.857614	0.0272671	0.669345	1.51616	0.0413713	0.390175	1.0376	0.0763642	0.592609	1.5352	-0.128358	0.295615	0.752245	-0.0970321	0.335194	0.90972	0.0300803	0.64452	0.103309	0.243772	0.406835	0.459156	0.0292699	0.614699	0.885604	0.146772	0.527343	1.30871	0.0630554	0.435034	0.632406	0.0359576	0.458782	0.302142	0.133352	0.460637	0.0307406	0.069396	0.454433	1.15852	0.0867984	0.369888	0.801775	-0.0774841	0.29133	0.800167	-0.0353902	0.761211	0.0688575	-0.0106596	0.738336	0.84803	-0.133524	0.840017	1.2175	0.00643019	0.760342	1.51354	-0.00900508	0.822986	1.23952	-0.41263	0.689752	1.53488	-0.163692	0.544468	1.41484	-0.471545	0.722447	1.29171	-0.48647	0.774015	0.0332634	0.0847392	0.666736	0.431579	-0.177592	0.831006	0.869732	0.0109998	0.798732	1.32355	-0.148138	0.720477	0.647671	-0.172564	0.724164	0.234055	-0.108591	0.59227	0.0286616	-0.110432	0.824028	1.26579	-0.307561	0.612352	1.37649	-0.413519	0.58513	1.35818	-0.49289	0.616126	1.10435	-0.126095	0.759012	1.01904	0.0842279
1009	180.179	0.732035	1.35679	0.00212482	0.652624	1.26912	-0.095802	0.536371	0.134993	0.199309	0.522471	0.858418	0.0257166	0.668726	1.51702	0.0394898	0.39012	1.03823	0.0699223	0.594927	1.53538	-0.131605	0.300309	0.751938	-0.105717	0.33658	0.910061	0.0223427	0.643163	0.10695	0.242263	0.405839	0.461005	0.0265602	0.614721	0.886635	0.145889	0.527206	1.30947	0.0597407	0.434898	0.634078	0.0337066	0.457614	0.304531	0.131037	0.46056	0.0306069	0.0692389	0.453999	1.15922	0.0819328	0.373629	0.802595	-0.0848958	0.294397	0.800337	-0.0441853	0.761315	0.0688301	-0.0106468	0.739921	0.848468	-0.13378	0.840623	1.21819	0.00713004	0.760583	1.51442	-0.00939013	0.830445	1.24019	-0.411853	0.692658	1.53513	-0.165151	0.554689	1.41708	-0.476596	0.731936	1.29304	-0.487627	0.774029	0.0332991	0.0847106	0.667683	0.432062	-0.177216	0.831744	0.870344	0.0112404	0.801205	1.32415	-0.147876	0.721743	0.648064	-0.172383	0.724572	0.234199	-0.108551	0.59227	0.0286257	-0.110444	0.82951	1.2664	-0.306672	0.619865	1.37732	-0.41674	0.595352	1.36045	-0.497532	0.617999	1.10497	-0.128013	0.759025	1.01982	0.0840788
1010	180.199	0.732557	1.35755	0.00156597	0.654492	1.2697	-0.0972487	0.534827	0.137443	0.197464	0.523278	0.85925	0.0242519	0.668103	1.51793	0.0375972	0.39016	1.0389	0.0636017	0.597233	1.53556	-0.134799	0.305084	0.751804	-0.114279	0.338067	0.910468	0.0147271	0.641749	0.110734	0.240588	0.404808	0.462955	0.0238087	0.614752	0.887599	0.145013	0.527112	1.31025	0.0565211	0.434758	0.635847	0.0314222	0.456416	0.306997	0.128636	0.460476	0.0304465	0.0690648	0.453636	1.15998	0.0771828	0.377431	0.803517	-0.0921677	0.297574	0.800594	-0.0528585	0.761428	0.0687914	-0.0106352	0.741478	0.848947	-0.133976	0.841221	1.21894	0.0078924	0.760775	1.51535	-0.00980458	0.837716	1.24092	-0.410949	0.69551	1.53539	-0.166597	0.56475	1.41929	-0.481469	0.741234	1.29437	-0.488578	0.774037	0.0333055	0.084659	0.668669	0.432576	-0.176792	0.83246	0.87098	0.0115311	0.803612	1.32479	-0.147552	0.722986	0.648505	-0.172161	0.725039	0.234361	-0.108469	0.592269	0.0285953	-0.110456	0.834863	1.26708	-0.305623	0.627162	1.3781	-0.419823	0.605418	1.36269	-0.501956	0.619845	1.10562	-0.12983	0.759042	1.02063	0.0839836
1011	180.219	0.733054	1.35835	0.00104265	0.656317	1.2703	-0.0986063	0.533262	0.139977	0.195518	0.524086	0.86012	0.0228845	0.667462	1.51889	0.0357112	0.390285	1.03961	0.0574184	0.599517	1.53575	-0.13793	0.309927	0.751831	-0.122701	0.33965	0.910938	0.00724876	0.640278	0.114652	0.238746	0.403754	0.465014	0.0210268	0.614785	0.888508	0.144133	0.527055	1.31107	0.0534142	0.434626	0.637722	0.0291032	0.455199	0.309527	0.126157	0.46038	0.0302531	0.0688733	0.453337	1.16077	0.0725617	0.381291	0.804552	-0.0992894	0.300856	0.800931	-0.0613992	0.761547	0.068737	-0.0106287	0.743005	0.849468	-0.134103	0.841806	1.21974	0.00870679	0.760911	1.51632	-0.0102221	0.844804	1.24173	-0.409919	0.698307	1.53566	-0.168008	0.574657	1.42144	-0.486156	0.75035	1.29569	-0.489325	0.774032	0.0332782	0.0845758	0.669704	0.433123	-0.17632	0.833163	0.871648	0.0118788	0.805944	1.32547	-0.147171	0.72422	0.648993	-0.171892	0.725562	0.23454	-0.108345	0.592262	0.0285685	-0.110467	0.840094	1.26784	-0.304453	0.63423	1.37882	-0.422774	0.61534	1.36487	-0.50615	0.621684	1.10629	-0.131495	0.759064	1.02149	0.0839457
